<?xml version="1.0" encoding="UTF-8" standalone="no"?><!DOCTYPE svg PUBLIC "-//W3C//DTD SVG 1.1//EN" "http://www.w3.org/Graphics/SVG/1.1/DTD/svg11.dtd"><svg width="100%" height="100%" viewBox="0 0 268 178" version="1.1" xmlns="http://www.w3.org/2000/svg" xmlns:xlink="http://www.w3.org/1999/xlink" xml:space="preserve" style="fill-rule:evenodd;clip-rule:evenodd;stroke-linejoin:round;stroke-miterlimit:1.41421;"><path d="M262.329,46.905c-6.215,-18.646 -7.334,-38.301 -26.693,-41.693c-39.654,-6.949 -164.077,-6.949 -203.731,0c-19.359,3.392 -20.478,23.047 -26.693,41.693c-6.949,20.847 -6.949,62.541 0,83.388c6.215,18.646 7.334,38.301 26.693,41.694c39.654,6.949 164.077,6.949 203.731,0c19.359,-3.393 20.478,-23.048 26.693,-41.694c6.949,-20.847 6.949,-62.541 0,-83.388Z" style="fill:#ff9100;"/><path d="M134.238,31.017l48.292,27.811l0,55.621l-48.292,27.811l-48.293,-27.811l0,-55.621l48.293,-27.811Z" style="fill:#fff;"/><g><path d="M177.41,95.36c-0.267,-50.344 -42.4,-51.342 -42.4,-51.342l-9.586,16.794c0,0 19.364,-0.841 31.043,7.701c14.418,10.545 20.952,28.504 20.943,26.847Z" style="fill:#ff9100;"/><path d="M121.515,45.191c-44.743,23.078 -26.517,61.079 -26.517,61.079l19.315,0.923c0,0 -9.534,-16.875 -7.221,-31.158c2.856,-17.634 15.896,-31.604 14.423,-30.844Z" style="fill:#ff9100;"/><path d="M106.278,121.1c44.175,24.147 65.453,-12.232 65.453,-12.232l-10.05,-16.52c0,0 -8.642,17.349 -21.772,23.43c-16.209,7.508 -35.085,4.527 -33.631,5.322Z" style="fill:#ff9100;"/></g></svg>