<svg xmlns="http://www.w3.org/2000/svg" xmlns:xlink="http://www.w3.org/1999/xlink" viewBox="0 0 24 30" version="1.1" x="0px" y="0px"><g stroke-width="1" fill-rule="evenodd"><g transform="translate(-477.000000, -189.000000)"><g transform="translate(478.000000, 190.000000)"><path d="M22,11.5 C22,5.42486775 17.0751322,0.5 11,0.5 C4.92486775,0.5 0,5.42486775 0,11.5 C0,17.5751322 4.92486775,22.5 11,22.5 C17.0751322,22.5 22,17.5751322 22,11.5 Z M1,11.5 C1,5.9771525 5.4771525,1.5 11,1.5 C16.5228475,1.5 21,5.9771525 21,11.5 C21,17.0228475 16.5228475,21.5 11,21.5 C5.4771525,21.5 1,17.0228475 1,11.5 Z"/><path d="M14.6269715,9.85410428 C15.3289843,9.20952831 16.2498557,8.87081744 17.4475135,8.99723754 C17.7221303,9.02622501 17.9682501,8.82710317 17.9972375,8.55248646 C18.026225,8.27786975 17.8271032,8.03174993 17.5524865,8.00276246 C16.0564095,7.8448424 14.8557263,8.28647243 13.9506403,9.1175066 C13.4824847,9.54735893 13.1906826,9.98030934 13.0468662,10.2886477 C12.9301396,10.5389065 13.0383888,10.8364071 13.2886477,10.9531338 C13.5389065,11.0698604 13.8364071,10.9616112 13.9531338,10.7113523 C14.0458396,10.5125934 14.2667015,10.1848979 14.6269715,9.85410428 Z"/><path d="M14.2269437,10.7749736 C15.2333052,10.4942375 16.3016367,10.4942375 17.2892019,10.9533919 C17.5396033,11.0698124 17.8369713,10.9611995 17.9533919,10.7107981 C18.0698124,10.4603967 17.9611995,10.1630287 17.7107981,10.0466081 C16.4761411,9.47257201 15.1741022,9.47257201 13.9582415,9.81175025 C13.6524944,9.89704191 13.4236936,9.98407817 13.2892019,10.0466081 C13.0388005,10.1630287 12.9301876,10.4603967 13.0466081,10.7107981 C13.1630287,10.9611995 13.4603967,11.0698124 13.7107981,10.9533919 C13.7985286,10.9126028 13.9771353,10.8446605 14.2269437,10.7749736 Z"/><path d="M8.04935969,9.1175066 C7.14427374,8.28647243 5.94359054,7.8448424 4.44751354,8.00276246 C4.17289683,8.03174993 3.97377499,8.27786975 4.00276246,8.55248646 C4.03174993,8.82710317 4.27786975,9.02622501 4.55248646,8.99723754 C5.75014431,8.87081744 6.67101569,9.20952831 7.37302852,9.85410428 C7.73329847,10.1848979 7.95416037,10.5125934 8.04686625,10.7113523 C8.16359291,10.9616112 8.46109346,11.0698604 8.71135232,10.9531338 C8.96161118,10.8364071 9.06986041,10.5389065 8.95313375,10.2886477 C8.80931744,9.98030934 8.5175153,9.54735893 8.04935969,9.1175066 Z"/><path d="M8.04175848,9.81175025 C6.8258978,9.47257201 5.52385892,9.47257201 4.28920193,10.0466081 C4.03880053,10.1630287 3.93018759,10.4603967 4.04660814,10.7107981 C4.1630287,10.9611995 4.46039666,11.0698124 4.71079807,10.9533919 C5.6983633,10.4942375 6.76669479,10.4942375 7.77305633,10.7749736 C8.02286473,10.8446605 8.20147136,10.9126028 8.28920193,10.9533919 C8.53960334,11.0698124 8.8369713,10.9611995 8.95339186,10.7107981 C9.06981241,10.4603967 8.96119947,10.1630287 8.71079807,10.0466081 C8.57630641,9.98407817 8.34750564,9.89704191 8.04175848,9.81175025 Z"/><path d="M15.5,18 C15.7761424,18 16,17.7761424 16,17.5 C16,17.2238576 15.7761424,17 15.5,17 L6.5,17 C6.22385763,17 6,17.2238576 6,17.5 C6,17.7761424 6.22385763,18 6.5,18 L15.5,18 Z"/><path d="M7.12176678,17.0159249 C7.24735019,16.5884205 7.42972661,16.161067 7.67752657,15.765382 C8.37314921,14.6546172 9.43608019,14 11,14 C12.5639198,14 13.6268508,14.6546172 14.3224734,15.765382 C14.5702734,16.161067 14.7526498,16.5884205 14.8782332,17.0159249 C14.9528571,17.2699557 14.9912463,17.4630987 15.0040159,17.5632435 C15.0389443,17.837168 15.289319,18.0309126 15.5632435,17.9959841 C15.837168,17.9610557 16.0309126,17.710681 15.9959841,17.4367565 C15.9768759,17.2869013 15.9283074,17.0425443 15.8376917,16.7340751 C15.6878758,16.2240795 15.4701668,15.713933 15.1699931,15.234618 C14.2999769,13.8453828 12.9272912,13 11,13 C9.07270882,13 7.70002315,13.8453828 6.83000686,15.234618 C6.52983319,15.713933 6.31212418,16.2240795 6.16230826,16.7340751 C6.07169257,17.0425443 6.02312407,17.2869013 6.00401587,17.4367565 C5.96908745,17.710681 6.16283202,17.9610557 6.4367565,17.9959841 C6.71068097,18.0309126 6.96105571,17.837168 6.99598413,17.5632435 C7.00875371,17.4630987 7.04714287,17.2699557 7.12176678,17.0159249 Z"/></g></g></g></svg>