<svg xmlns="http://www.w3.org/2000/svg" xmlns:xlink="http://www.w3.org/1999/xlink" version="1.1" x="0px" y="0px" viewBox="0 0 25.377 29.61" style="enable-background:new 0 0 25.377 23.688;" xml:space="preserve"><g><rect x="21.049" y="18.36" transform="matrix(0.7071 -0.7071 0.7071 0.7071 -8.1458 22.0536)" width="3" height="5.001"/><polygon points="1.689,0 2.043,3.89 8.445,10.293 11.981,6.757 5.578,0.354  "/><polygon points="22.549,14.496 21.135,15.91 16.932,11.707 13.396,15.242 17.599,19.446 16.185,20.86 16.892,21.567 23.256,15.203     "/><rect x="0.328" y="19.36" transform="matrix(0.7071 -0.7071 0.7071 0.7071 -13.9217 8.1097)" width="5.001" height="3"/><polygon points="23.334,3.89 23.688,0 19.799,0.354 4.242,15.91 2.828,14.496 2.121,15.203 8.485,21.567 9.192,20.86 7.778,19.446     "/></g></svg>