<svg xmlns="http://www.w3.org/2000/svg" xmlns:xlink="http://www.w3.org/1999/xlink" version="1.1" x="0px" y="0px" viewBox="0 0 100 125" enable-background="new 0 0 100 100" xml:space="preserve"><path d="M75.646,42.162c1.353,3.412,2.104,7.125,2.104,11.013c0,16.543-13.458,30.001-30,30.001s-30-13.458-30-30.001  c0-16.542,13.458-29.999,30-29.999c2.659,0,5.237,0.352,7.693,1.004l5.553-5.552c-4.113-1.579-8.576-2.452-13.246-2.452  c-20.432,0-37,16.566-37,36.999c0,20.435,16.568,37.001,37,37.001c20.435,0,37-16.566,37-37.001c0-5.86-1.368-11.398-3.793-16.322  L75.646,42.162z"/><path d="M47.75,37.175c1.418,0,2.784,0.211,4.085,0.58l3.726-3.995c-2.4-1.02-5.039-1.585-7.811-1.585c-11.045,0-20,8.955-20,19.999  s8.955,20.001,20,20.001c11.043,0,20-8.957,20-20.001c0-3.148-0.748-6.116-2.045-8.766l-3.74,4.011  c0.502,1.496,0.785,3.092,0.785,4.755c0,8.271-6.729,15.001-15,15.001s-15-6.729-15-15.001C32.75,43.904,39.479,37.175,47.75,37.175  z"/><path d="M59.776,27.068v8.931L48.806,47.292c-0.341-0.073-0.693-0.116-1.056-0.116c-2.762,0-5,2.239-5,5s2.238,5,5,5  c2.761,0,5-2.239,5-5c0-0.527-0.104-1.027-0.256-1.505L63.54,39.3h8.473L89.25,22.061l-8.17-0.816l4.225-4.349l-3.586-3.484  l-3.938,4.054l-0.764-7.641L59.776,27.068z"/></svg>